<?xml version="1.0" encoding="UTF-8"?>
<svg version="1.1" xmlns="http://www.w3.org/2000/svg" width="220" height="170">
<path d="M0 0 C7.68215503 4.67935828 15.78095482 10.32040494 21.3984375 17.4609375 C21.3984375 18.1209375 21.3984375 18.7809375 21.3984375 19.4609375 C22.29369141 19.86119141 22.29369141 19.86119141 23.20703125 20.26953125 C35.08797435 26.72886751 43.02797782 45.74381708 49.7734375 56.8984375 C50.26094482 57.7018457 50.74845215 58.50525391 51.25073242 59.33300781 C61.15451549 75.87731061 61.15451549 75.87731061 60.28125 83.2578125 C56.99170639 91.46711602 48.93109786 95.28231177 41.7734375 99.7109375 C40.61659574 100.43655742 39.46034022 101.16311285 38.3046875 101.890625 C36.19093036 103.21856184 34.07451064 104.54227672 31.95458984 105.86035156 C30.08409719 107.03159796 28.23471819 108.23675037 26.3984375 109.4609375 C22.45288252 109.38074329 20.80855494 108.82778567 17.84375 106.17578125 C17.07804687 105.25925781 16.31234375 104.34273438 15.5234375 103.3984375 C14.35167969 102.01978516 14.35167969 102.01978516 13.15625 100.61328125 C12.57617188 99.90300781 11.99609375 99.19273438 11.3984375 98.4609375 C11.4298584 100.12479492 11.4298584 100.12479492 11.46191406 101.82226562 C11.53472217 105.96698929 11.58038445 110.11165726 11.61816406 114.25683594 C11.63818709 116.04534434 11.66541404 117.83378804 11.70019531 119.62207031 C11.74912705 122.20393912 11.77149915 124.784937 11.7890625 127.3671875 C11.80970764 128.15710083 11.83035278 128.94701416 11.85162354 129.76086426 C11.8538797 135.43768541 10.56605929 139.71518908 7.3984375 144.4609375 C-0.26465921 151.54930196 -11.86597106 151.95574938 -21.7734375 151.66015625 C-23.66835937 151.56154297 -23.66835937 151.56154297 -25.6015625 151.4609375 C-26.88546875 151.42613281 -28.169375 151.39132813 -29.4921875 151.35546875 C-38.03048243 150.73921106 -38.03048243 150.73921106 -41.55078125 147.875 C-46.86278957 139.44275756 -45.54776586 127.05467169 -45.6015625 117.4609375 C-45.60994141 116.35427734 -45.61832031 115.24761719 -45.62695312 114.10742188 C-45.6702899 107.2247542 -45.66047273 100.34346516 -45.6015625 93.4609375 C-46.0140625 94.17378906 -46.4265625 94.88664062 -46.8515625 95.62109375 C-50.94168038 102.40448122 -55.32587483 108.82309367 -62.6015625 112.4609375 C-65.64944048 113.04148569 -67.70441472 113.01650166 -70.38671875 111.35546875 C-79.95811062 103.39568701 -87.773169 92.77320523 -94.6015625 82.4609375 C-95.2615625 81.4709375 -95.9215625 80.4809375 -96.6015625 79.4609375 C-97.52553342 71.33444625 -91.91691032 65.67792552 -87.15625 59.62255859 C-85.03885262 56.98191975 -82.8995605 54.36047386 -80.74243164 51.75219727 C-76.63312782 46.77864682 -72.72115109 41.68478665 -68.8515625 36.5234375 C-64.74636988 31.07711356 -60.5472832 26.06046067 -55.57421875 21.3671875 C-53.61582383 19.47471874 -51.90090711 17.49393447 -50.1640625 15.3984375 C-37.7018135 1.02111813 -18.61896157 -8.95997809 0 0 Z " fill="#FD0100" transform="translate(96.6015625,3.5390625)"/>
<path d="M0 0 C7.68215503 4.67935828 15.78095482 10.32040494 21.3984375 17.4609375 C21.3984375 18.1209375 21.3984375 18.7809375 21.3984375 19.4609375 C22.29369141 19.86119141 22.29369141 19.86119141 23.20703125 20.26953125 C35.08797435 26.72886751 43.02797782 45.74381708 49.7734375 56.8984375 C50.26094482 57.7018457 50.74845215 58.50525391 51.25073242 59.33300781 C61.15451549 75.87731061 61.15451549 75.87731061 60.28125 83.2578125 C56.99170639 91.46711602 48.93109786 95.28231177 41.7734375 99.7109375 C40.61659574 100.43655742 39.46034022 101.16311285 38.3046875 101.890625 C36.19093036 103.21856184 34.07451064 104.54227672 31.95458984 105.86035156 C30.08409719 107.03159796 28.23471819 108.23675037 26.3984375 109.4609375 C22.45288252 109.38074329 20.80855494 108.82778567 17.84375 106.17578125 C17.07804687 105.25925781 16.31234375 104.34273438 15.5234375 103.3984375 C14.35167969 102.01978516 14.35167969 102.01978516 13.15625 100.61328125 C12.57617188 99.90300781 11.99609375 99.19273438 11.3984375 98.4609375 C11.4298584 100.12479492 11.4298584 100.12479492 11.46191406 101.82226562 C11.53472217 105.96698929 11.58038445 110.11165726 11.61816406 114.25683594 C11.63818709 116.04534434 11.66541404 117.83378804 11.70019531 119.62207031 C11.74912705 122.20393912 11.77149915 124.784937 11.7890625 127.3671875 C11.80970764 128.15710083 11.83035278 128.94701416 11.85162354 129.76086426 C11.8538797 135.43768541 10.56605929 139.71518908 7.3984375 144.4609375 C-0.26465921 151.54930196 -11.86597106 151.95574938 -21.7734375 151.66015625 C-23.66835937 151.56154297 -23.66835937 151.56154297 -25.6015625 151.4609375 C-26.88546875 151.42613281 -28.169375 151.39132813 -29.4921875 151.35546875 C-38.03048243 150.73921106 -38.03048243 150.73921106 -41.55078125 147.875 C-46.86278957 139.44275756 -45.54776586 127.05467169 -45.6015625 117.4609375 C-45.60994141 116.35427734 -45.61832031 115.24761719 -45.62695312 114.10742188 C-45.6702899 107.2247542 -45.66047273 100.34346516 -45.6015625 93.4609375 C-46.0140625 94.17378906 -46.4265625 94.88664062 -46.8515625 95.62109375 C-50.94168038 102.40448122 -55.32587483 108.82309367 -62.6015625 112.4609375 C-65.64944048 113.04148569 -67.70441472 113.01650166 -70.38671875 111.35546875 C-79.95811062 103.39568701 -87.773169 92.77320523 -94.6015625 82.4609375 C-95.2615625 81.4709375 -95.9215625 80.4809375 -96.6015625 79.4609375 C-97.52553342 71.33444625 -91.91691032 65.67792552 -87.15625 59.62255859 C-85.03885262 56.98191975 -82.8995605 54.36047386 -80.74243164 51.75219727 C-76.63312782 46.77864682 -72.72115109 41.68478665 -68.8515625 36.5234375 C-64.74636988 31.07711356 -60.5472832 26.06046067 -55.57421875 21.3671875 C-53.61582383 19.47471874 -51.90090711 17.49393447 -50.1640625 15.3984375 C-37.7018135 1.02111813 -18.61896157 -8.95997809 0 0 Z M-46.85913086 23.25756836 C-48.28195108 24.9524662 -49.68789817 26.65961888 -51.0859375 28.375 C-53.02325461 30.75152254 -54.98980219 33.05787629 -57.0390625 35.3359375 C-64.84527323 44.22014876 -72.05242828 53.64310368 -79.1640625 63.0859375 C-79.66446045 63.74851563 -80.1648584 64.41109375 -80.68041992 65.09375 C-82.00767665 66.8691861 -83.31059038 68.65901109 -84.6015625 70.4609375 C-85.22933594 71.33492188 -85.85710937 72.20890625 -86.50390625 73.109375 C-87.90543577 76.11194003 -87.72511925 77.36871393 -86.6015625 80.4609375 C-81.38770216 88.50478086 -74.1378599 95.4680605 -67.6015625 102.4609375 C-64.57704723 101.12807953 -62.70894575 99.74707201 -60.578125 97.23046875 C-59.75828125 96.27237305 -59.75828125 96.27237305 -58.921875 95.29492188 C-58.36242187 94.62783203 -57.80296875 93.96074219 -57.2265625 93.2734375 C-56.67484375 92.62568359 -56.123125 91.97792969 -55.5546875 91.31054688 C-53.34247136 88.71145256 -51.13820475 86.10634137 -48.95605469 83.48193359 C-48.43430664 82.86012207 -47.91255859 82.23831055 -47.375 81.59765625 C-46.91270996 81.04166748 -46.45041992 80.48567871 -45.97412109 79.9128418 C-43.74395262 77.55375039 -42.17499035 76.48760856 -38.9140625 76.3359375 C-38.1509375 76.3771875 -37.3878125 76.4184375 -36.6015625 76.4609375 C-36.60378311 77.17646286 -36.60600372 77.89198822 -36.60829163 78.62919617 C-36.6283539 85.38234569 -36.6435669 92.13548685 -36.65337467 98.88865948 C-36.65858649 102.36027488 -36.66565318 105.8318656 -36.67700195 109.3034668 C-36.68997598 113.29736565 -36.69480478 117.29123869 -36.69921875 121.28515625 C-36.70438004 122.52802902 -36.70954132 123.77090179 -36.71485901 125.05143738 C-36.71493454 126.21226334 -36.71501007 127.37308929 -36.71508789 128.5690918 C-36.7173085 129.58835251 -36.71952911 130.60761322 -36.72181702 131.65776062 C-36.60574244 134.36350165 -36.21071284 136.82642782 -35.6015625 139.4609375 C-24.48054959 141.70723481 -10.24027136 142.84416281 -0.24609375 136.84765625 C2.21297558 134.77409423 3.3372371 133.11303893 3.63894653 129.89826965 C3.63450531 128.87456772 3.63006409 127.85086578 3.62548828 126.79614258 C3.62533722 125.63516556 3.62518616 124.47418854 3.62503052 123.2780304 C3.61470795 122.02483505 3.60438538 120.77163971 3.59375 119.48046875 C3.58950516 117.55578011 3.58950516 117.55578011 3.58517456 115.59220886 C3.57754547 112.18417548 3.55790337 108.77631309 3.5357666 105.36834717 C3.51529247 101.88946852 3.5061695 98.41056218 3.49609375 94.93164062 C3.47465668 88.10800276 3.44052955 81.28447834 3.3984375 74.4609375 C11.01537038 77.42487665 11.01537038 77.42487665 13.09375 80.71875 C13.4973877 81.34064209 13.90102539 81.96253418 14.31689453 82.60327148 C14.9141333 83.58469116 14.9141333 83.58469116 15.5234375 84.5859375 C16.16128174 85.58765991 16.16128174 85.58765991 16.81201172 86.60961914 C19.86518896 91.44918008 22.77822942 96.37221759 25.3984375 101.4609375 C31.58143555 97.56793873 37.27190078 93.26523632 42.86328125 88.5625 C44.35914446 87.32247781 45.88395889 86.11400539 47.46484375 84.984375 C49.34395564 83.70717379 49.34395564 83.70717379 51.3984375 81.4609375 C50.47115717 66.04220636 33.61146715 48.79428744 24.79101562 36.41748047 C23.56661931 34.6972294 22.34915831 32.97204651 21.1328125 31.24609375 C13.54877702 20.60157152 6.27412532 12.39878141 -5.6015625 6.4609375 C-23.22651078 5.19160829 -35.13066521 9.61131579 -46.85913086 23.25756836 Z " fill="#0003FB" transform="translate(96.6015625,3.5390625)"/>
<path d="M0 0 C16.83 0 33.66 0 51 0 C51.12375 7.1775 51.2475 14.355 51.375 21.75 C51.42962402 23.99006836 51.48424805 26.23013672 51.54052734 28.53808594 C51.82202523 48.27387874 51.82202523 48.27387874 45 57 C39.19099025 62.65796733 33.12207425 65.27152877 24.9375 65.375 C17.67172798 65.26655564 9.29507666 64.11056 3.2578125 59.73828125 C-0.97355331 53.89058626 -0.2593564 46.90388164 -0.1953125 40.0390625 C-0.1924826 38.89335785 -0.18965271 37.7476532 -0.18673706 36.56723022 C-0.17557135 32.91971245 -0.15047299 29.27244315 -0.125 25.625 C-0.11496555 23.14713897 -0.10584051 20.66927408 -0.09765625 18.19140625 C-0.07734823 12.12743218 -0.0381917 6.06399317 0 0 Z " fill="#FD0100" transform="translate(159,0)"/>
<path d="M0 0 C16.83 0 33.66 0 51 0 C51 14.85 51 29.7 51 45 C34.17 45 17.34 45 0 45 C0 30.15 0 15.3 0 0 Z " fill="#FB0300" transform="translate(159,67)"/>
<path d="M0 0 C1.98 0 3.96 0 6 0 C6 12.87 6 25.74 6 39 C19.47643773 43.14388831 19.47643773 43.14388831 33.15234375 40.875 C34.93986505 39.39546096 34.93986505 39.39546096 37 37 C37.66 37 38.32 37 39 37 C39.68774405 35.67741528 40.34711373 34.34013497 41 33 C41.5053125 32.071875 42.010625 31.14375 42.53125 30.1875 C44.91243236 24.60421375 44.57344343 18.53580548 44.6875 12.5625 C44.72166016 11.35400391 44.75582031 10.14550781 44.79101562 8.90039062 C44.87309835 5.93368651 44.94238015 2.96726324 45 0 C46.98 0 48.96 0 51 0 C51.14954495 6.18886008 51.25777719 12.37664352 51.32958984 18.56689453 C51.35955945 20.6676671 51.4003503 22.76831673 51.45263672 24.86865234 C52.01427495 48.02797018 52.01427495 48.02797018 45 57 C39.19099025 62.65796733 33.12207425 65.27152877 24.9375 65.375 C17.67172798 65.26655564 9.29507666 64.11056 3.2578125 59.73828125 C-0.97355331 53.89058626 -0.2593564 46.90388164 -0.1953125 40.0390625 C-0.1924826 38.89335785 -0.18965271 37.7476532 -0.18673706 36.56723022 C-0.17557135 32.91971245 -0.15047299 29.27244315 -0.125 25.625 C-0.11496555 23.14713897 -0.10584051 20.66927408 -0.09765625 18.19140625 C-0.0756438 12.12751986 -0.04220194 6.06377769 0 0 Z " fill="#0001FD" transform="translate(159,0)"/>
<path d="M0 0 C1.53217032 1.10244643 3.03462253 2.24770889 4.5 3.4375 C5.52287109 4.19740234 5.52287109 4.19740234 6.56640625 4.97265625 C12.68556699 9.84643007 17.0248234 16.09384627 21.5 22.4375 C22.03995605 23.19885254 22.57991211 23.96020508 23.13623047 24.74462891 C27.29493372 30.61648334 31.40995041 36.51765797 35.5 42.4375 C36.13349365 43.35160645 36.13349365 43.35160645 36.77978516 44.28417969 C40.74219868 50.02212936 44.48496859 55.89062394 48.0625 61.875 C48.4219873 62.45491699 48.78147461 63.03483398 49.15185547 63.63232422 C50.63718445 66.18061727 51.49360876 68.08118839 51.546875 71.05078125 C50.0816223 74.39133871 48.03701184 75.92563068 45.1875 78.1875 C44.65930664 78.61144043 44.13111328 79.03538086 43.58691406 79.47216797 C37.99466945 83.92647503 32.26277229 88.20737992 26.5 92.4375 C25.84 91.4475 25.18 90.4575 24.5 89.4375 C24.98355957 89.06987549 25.46711914 88.70225098 25.96533203 88.32348633 C28.18629911 86.6337355 30.40565736 84.94188374 32.625 83.25 C33.38554687 82.67185547 34.14609375 82.09371094 34.9296875 81.49804688 C36.42810095 80.35486075 37.92074956 79.20407468 39.40722656 78.04541016 C40.72373909 77.03391325 42.06213582 76.04969744 43.42871094 75.10693359 C45.33666724 73.80199958 45.33666724 73.80199958 47.5 71.4375 C47.69405676 66.49239838 45.23841717 62.70723616 42.6875 58.625 C42.0989624 57.66364136 42.0989624 57.66364136 41.49853516 56.68286133 C36.92932412 49.33512386 31.8889906 42.3158195 26.83349609 35.29833984 C25.08936397 32.86447404 23.38786642 30.40207605 21.6875 27.9375 C18.94630103 24.01578468 16.08571282 20.20824083 13.10546875 16.46484375 C11.75567195 14.76035582 10.46426174 13.00986078 9.1875 11.25 C4.23601593 6.06821434 -2.47983319 1.68815788 -9.7578125 1.234375 C-22.22201228 1.08329379 -30.15188598 2.81970739 -39.5 11.4375 C-45.09580628 17.14017064 -50.11816187 23.33495484 -55.1328125 29.546875 C-57.17822684 32.04457568 -59.27199074 34.48995822 -61.3894043 36.92651367 C-66.40352952 42.72519249 -71.05423876 48.73707456 -75.5625 54.9375 C-76.12291992 55.70328369 -76.68333984 56.46906738 -77.26074219 57.25805664 C-81.18488207 62.45977388 -81.18488207 62.45977388 -83.5 68.4375 C-82.64183984 70.55797443 -82.64183984 70.55797443 -80.875 72.4375 C-80.23175781 73.19933594 -79.58851562 73.96117188 -78.92578125 74.74609375 C-74.16771608 80.02517089 -69.37112059 85.26243428 -64.5 90.4375 C-64.83 91.4275 -65.16 92.4175 -65.5 93.4375 C-69.75890871 91.82767326 -72.40512744 88.61251339 -75.375 85.3125 C-76.16910278 84.43452759 -76.16910278 84.43452759 -76.97924805 83.53881836 C-78.49662658 81.84731825 -80.00051135 80.14485924 -81.5 78.4375 C-82.21027344 77.63699219 -82.92054687 76.83648437 -83.65234375 76.01171875 C-84.47412109 75.01591797 -84.47412109 75.01591797 -85.3125 74 C-85.77269531 73.44441406 -86.23289062 72.88882813 -86.70703125 72.31640625 C-87.9796753 69.30092946 -87.43684173 67.55530928 -86.5 64.4375 C-84.89766143 61.74641668 -83.00664537 59.32650825 -81.0625 56.875 C-80.52189941 56.17608643 -79.98129883 55.47717285 -79.42431641 54.75708008 C-78.31765508 53.32752066 -77.20665577 51.90130869 -76.09130859 50.47851562 C-74.6505151 48.63055097 -73.23520671 46.76721873 -71.83203125 44.890625 C-67.1671037 38.67224908 -62.23885877 32.8293479 -56.94921875 27.1328125 C-54.45368193 24.38652796 -52.09126705 21.56604273 -49.75 18.6875 C-49.01007812 17.78 -48.27015625 16.8725 -47.5078125 15.9375 C-46.31588315 14.45338564 -45.13808045 12.95744091 -43.9921875 11.4375 C-34.3692391 -0.87987395 -14.38680012 -8.36441867 0 0 Z " fill="#09E80C" transform="translate(96.5,12.5625)"/>
<path d="M0 0 C0.33 0 0.66 0 1 0 C2.1555538 10.33807949 2.09776087 20.61562308 2 31 C10.13635668 33.23209785 19.53906615 35.3006333 27.60546875 31.90234375 C31.96424202 28.83566462 35.03803648 24.99075562 37 20 C37.58628134 16.51958594 37.69417543 13.0870604 37.75 9.5625 C37.79447266 8.17901367 37.79447266 8.17901367 37.83984375 6.76757812 C37.90997673 4.51163399 37.9629475 2.25668881 38 0 C38.33 0 38.66 0 39 0 C39.11703447 4.16642697 39.18753101 8.3324259 39.25 12.5 C39.30027344 14.25957031 39.30027344 14.25957031 39.3515625 16.0546875 C39.44902683 24.72901287 38.4540959 30.1030713 32.5625 36.75 C31.716875 37.4925 30.87125 38.235 30 39 C29.25878906 39.69609375 28.51757812 40.3921875 27.75390625 41.109375 C22.69863249 44.57994592 16.89177048 43.65185546 11 43 C7.17569299 41.96832648 3.60025591 40.64583127 0 39 C-0.73174561 30.98999896 -1.10625255 23.04031417 -1.125 15 C-1.12951172 14.19973389 -1.13402344 13.39946777 -1.13867188 12.57495117 C-1.1278268 8.27171421 -0.85566488 4.23757847 0 0 Z " fill="#0BEB07" transform="translate(165,0)"/>
<path d="M0 0 C2.31 0 4.62 0 7 0 C7 14.85 7 29.7 7 45 C4.69 45 2.38 45 0 45 C0 30.15 0 15.3 0 0 Z " fill="#001EE0" transform="translate(159,67)"/>
<path d="M0 0 C4.875 0.875 4.875 0.875 6 2 C6.39080598 10.48512653 5.88527186 19.02141141 5.5 27.5 C5.01236609 39.00749106 4.88997406 50.48395142 5 62 C8.79139846 62.11771717 12.58231735 62.18775198 16.375 62.25 C17.43589844 62.28351563 18.49679688 62.31703125 19.58984375 62.3515625 C26.67654863 62.43851593 32.81416368 61.69810512 39 58 C41.21296761 54.68054858 41.26466755 53.57627026 41.31884766 49.70239258 C41.33871735 48.62149857 41.35858704 47.54060455 41.37905884 46.42695618 C41.39061005 45.26125595 41.40216125 44.09555573 41.4140625 42.89453125 C41.43342865 41.70018967 41.4527948 40.50584808 41.4727478 39.27531433 C41.53260616 35.45444924 41.57895454 31.63355413 41.625 27.8125 C41.66317397 25.22459612 41.70222535 22.63670501 41.7421875 20.04882812 C41.83831291 13.69933209 41.92334218 7.34975928 42 1 C42.33 1 42.66 1 43 1 C43.11601154 8.3453458 43.20477378 15.69049309 43.25906086 23.03657055 C43.2851206 26.44796874 43.3204489 29.85873874 43.37719727 33.26977539 C43.44207403 37.19409584 43.4662107 41.11816474 43.48828125 45.04296875 C43.51408768 46.26396774 43.5398941 47.48496674 43.56648254 48.7429657 C43.56928878 57.21992309 43.56928878 57.21992309 40.66650391 61.19750977 C33.77688996 65.85471722 28.60593621 66.4339479 20.4375 66.25 C19.51775391 66.24484375 18.59800781 66.2396875 17.65039062 66.234375 C13.00028798 66.18088712 8.5719471 65.94329691 4 65 C3.14135964 61.30532056 2.89193939 57.92898344 2.93408203 54.13989258 C2.94871994 52.40833672 2.94871994 52.40833672 2.96365356 50.64179993 C2.97822601 49.40520126 2.99279846 48.1686026 3.0078125 46.89453125 C3.02531868 44.27669652 3.04222792 41.65885774 3.05859375 39.04101562 C3.08844027 34.91274107 3.12429565 30.7846093 3.17138672 26.65649414 C3.21613778 22.6733979 3.23710385 18.69032678 3.2578125 14.70703125 C3.27643341 13.46435989 3.29505432 12.22168854 3.3142395 10.94136047 C3.31942093 9.22398933 3.31942093 9.22398933 3.32470703 7.47192383 C3.33922409 5.95566154 3.33922409 5.95566154 3.35403442 4.4087677 C3.23720306 3.61387436 3.1203717 2.81898102 3 2 C2.01 1.34 1.02 0.68 0 0 Z " fill="#1BD011" transform="translate(57,78)"/>
<path d="M0 0 C1.98 0 3.96 0 6 0 C6 14.85 6 29.7 6 45 C4.02 45 2.04 45 0 45 C0 30.15 0 15.3 0 0 Z " fill="#001DE1" transform="translate(204,67)"/>
<path d="M0 0 C10.29640452 -0.68983355 17.63010147 -0.79581273 26 6 C26.68191406 6.50660156 27.36382812 7.01320313 28.06640625 7.53515625 C36.52847261 14.27500167 42.51336141 23.79660624 48 33 C47.34 33.66 46.68 34.32 46 35 C45.505 34.236875 45.01 33.47375 44.5 32.6875 C41.15392272 27.68024961 37.60157874 22.82555276 34 18 C33.505 17.32195313 33.01 16.64390625 32.5 15.9453125 C28.02403208 10.22319442 21.87854822 6.29284941 15 4 C12.23186945 3.77178771 9.46515323 3.61996711 6.69140625 3.4765625 C3.69316546 2.94566936 2.25648243 1.99509322 0 0 Z " fill="#10DE0E" transform="translate(75,10)"/>
<path d="M0 0 C0.33 0 0.66 0 1 0 C2.04249778 10.33189762 2.93064509 20.73387133 1 31 C0.67 31 0.34 31 0 31 C-1.06494431 25.79360559 -1.14966663 20.78688032 -1.125 15.5 C-1.12886719 14.67113281 -1.13273438 13.84226562 -1.13671875 12.98828125 C-1.12965546 8.54547424 -0.89447213 4.37297486 0 0 Z " fill="#15C721" transform="translate(165,0)"/>
<path d="M0 0 C1.85625 0.0309375 1.85625 0.0309375 3.75 0.0625 C3.42 0.7225 3.09 1.3825 2.75 2.0625 C1.12279099 2.54682355 -0.52897644 2.94962528 -2.1875 3.3125 C-8.27631904 4.85064408 -13.06486654 7.5869984 -18.25 11.0625 C-16.98799322 7.18540701 -15.90952425 5.36652542 -12.375 3.3125 C-11.69695312 2.90515625 -11.01890625 2.4978125 -10.3203125 2.078125 C-6.84829813 0.37487267 -3.84304078 -0.06405068 0 0 Z " fill="#0DEB06" transform="translate(76.25,10.9375)"/>
<path d="M0 0 C0.66 0.33 1.32 0.66 2 1 C0.6875 3.5 0.6875 3.5 -1 6 C-1.99 6 -2.98 6 -4 6 C-2.84826645 3.53199953 -1.95216435 1.95216435 0 0 Z " fill="#0BDE15" transform="translate(57,19)"/>
<path d="M0 0 C0 3 0 3 -2 5.1875 C-2.66 5.785625 -3.32 6.38375 -4 7 C-4.33 6.34 -4.66 5.68 -5 5 C-3.35 3.35 -1.7 1.7 0 0 Z " fill="#08EE08" transform="translate(28,55)"/>
</svg>
